# xmcd
#
# Track frame offsets: 
#        150
#        5846
#        19594
#        29790
#        40041
#        52674
#        64500
#        77316
#        87763
#        98808
#        109184
#        121232
#        130537
#        142571
#        156123
#
# Disc length: 2216 seconds
#
# Revision: 0
# Processed by: cddbd v1.5.1PL2 Copyright (c) Steve Scherf et al.
# Submitted via: ExactAudioCopy v0.95b1
#
DISCID=a508a60f
DTITLE=Skeeter Davis - RCA Country Legends
DYEAR=1900
DGENRE=Country
TTITLE0=Rock-A-Bye Boogie
TTITLE1=I Forgot More Than You'll Ever Know
TTITLE2=Foggy Mountain Top
TTITLE3=Single Girl (Previously Unreleased)
TTITLE4=(I Can't Help You) I'm Falling Too
TTITLE5=My Last Date (With You)
TTITLE6=He Says The Same Things To Me
TTITLE7=I Can't Believe That It's All Over
TTITLE8=Oh Boy!
TTITLE9=There's A Fool Born Every Minute
TTITLE10=The End Of The World
TTITLE11=I'm Saving My Love
TTITLE12=What Does It Take (To Keep A Man Like You Satisfied)
TTITLE13=Bus Fare To Kentucky
TTITLE14=Homebreaker
EXTD=
EXTT0=
EXTT1=
EXTT2=
EXTT3=
EXTT4=
EXTT5=
EXTT6=
EXTT7=
EXTT8=
EXTT9=
EXTT10=
EXTT11=
EXTT12=
EXTT13=
EXTT14=
PLAYORDER=
